<?xml version="1.0" encoding="utf-8"?>
<!-- Generator: Adobe Illustrator 17.0.2, SVG Export Plug-In . SVG Version: 6.00 Build 0)  -->
<!DOCTYPE svg PUBLIC "-//W3C//DTD SVG 1.1//EN" "http://www.w3.org/Graphics/SVG/1.1/DTD/svg11.dtd">
<svg version="1.1" id="Layer_1" xmlns="http://www.w3.org/2000/svg" xmlns:xlink="http://www.w3.org/1999/xlink" x="0px" y="0px"
	 width="153px" height="94px" viewBox="0 0 153 94" enable-background="new 0 0 153 94" xml:space="preserve">
<path fill="#904530" d="M139.275,93.21H12.182c-2.808,0-5.083-2.276-5.083-5.084v-7.625h137.259v7.625
	C144.359,90.934,142.083,93.21,139.275,93.21L139.275,93.21z M139.275,93.21"/>
<path fill="#D3BC54" d="M29.976,1.704c-11.601,0-17.794,36.178-17.794,43.211c0,9.811,7.983,17.793,17.794,17.793
	c9.811,0,17.792-7.982,17.792-17.793C47.769,37.884,41.577,1.704,29.976,1.704L29.976,1.704z M29.976,1.704"/>
<path fill="#904530" d="M19.808,44.915c0-6.217,4.844-35.196,13.981-41.836c-1.199-0.872-2.467-1.375-3.813-1.375
	c-11.601,0-17.793,36.178-17.793,43.211c0,9.811,7.982,17.793,17.793,17.793c1.309,0,2.582-0.152,3.813-0.42
	C25.806,60.536,19.808,53.417,19.808,44.915L19.808,44.915z M19.808,44.915"/>
<path fill="#98826E" d="M36.857,43.118c-0.993-0.993-2.603-0.993-3.595,0l-0.744,0.745v-4.033c0-1.403-1.139-2.542-2.542-2.542
	c-1.405,0-2.542,1.139-2.542,2.542v9.115l-0.745-0.744c-0.993-0.993-2.601-0.993-3.594,0c-0.992,0.993-0.992,2.601,0,3.594
	l4.339,4.339v24.367h5.084V51.051l4.339-4.339C37.85,45.72,37.85,44.111,36.857,43.118L36.857,43.118z M36.857,43.118"/>
<path fill="#FFDCA0" d="M134.191,39.831L106.23,22.039L78.271,39.831v40.671h55.92V39.831z M134.191,39.831"/>
<path fill="#D3BC54" d="M60.477,34.748c-7.588,0-10.166,21.024-10.166,22.877c0,5.606,4.561,10.167,10.166,10.167
	c5.607,0,10.168-4.561,10.168-10.167C70.645,55.772,68.067,34.748,60.477,34.748L60.477,34.748z M60.477,34.748"/>
<path fill="#904530" d="M55.395,57.625c0-1.63,1.993-18.047,7.624-22.009c-0.777-0.548-1.621-0.868-2.542-0.868
	c-7.588,0-10.166,21.024-10.166,22.877c0,5.606,4.561,10.167,10.166,10.167c0.883,0,1.725-0.149,2.542-0.361
	C58.647,66.294,55.395,62.348,55.395,57.625L55.395,57.625z M55.395,57.625"/>
<path fill="#B0B9C0" d="M93.522,70.334h-5.084c-1.403,0-2.542-1.139-2.542-2.542V49.999c0-1.405,1.139-2.542,2.542-2.542h5.084
	c1.403,0,2.542,1.137,2.542,2.542v17.793C96.064,69.196,94.925,70.334,93.522,70.334L93.522,70.334z M93.522,70.334"/>
<path fill="#904530" d="M136.73,44.915c-0.484,0-0.974-0.137-1.407-0.427L106.23,25.092L77.139,44.488
	c-1.17,0.778-2.749,0.463-3.526-0.704c-0.777-1.168-0.462-2.747,0.706-3.525l30.503-20.335c0.853-0.569,1.966-0.569,2.819,0
	l30.503,20.335c1.168,0.778,1.483,2.357,0.704,3.525C138.358,44.519,137.553,44.915,136.73,44.915L136.73,44.915z M136.73,44.915"/>
<path fill="#98826E" d="M60.477,57.625c-1.403,0-2.542,1.137-2.542,2.542v20.335h5.084V60.167
	C63.019,58.763,61.882,57.625,60.477,57.625L60.477,57.625z M60.477,57.625"/>
<path fill="#A0855F" d="M146.901,83.044H4.557c-1.403,0-2.542-1.139-2.542-2.542c0-1.405,1.139-2.542,2.542-2.542h142.344
	c1.403,0,2.542,1.137,2.542,2.542C149.443,81.905,148.304,83.044,146.901,83.044L146.901,83.044z M146.901,83.044"/>
<path fill="#9D8443" d="M96.064,52.541H85.896v-2.542c0-1.405,1.139-2.542,2.542-2.542h5.084c1.405,0,2.542,1.137,2.542,2.542
	V52.541z M96.064,52.541"/>
<path fill="#B0B9C0" d="M108.772,70.334h-5.083c-1.405,0-2.542-1.139-2.542-2.542V49.999c0-1.405,1.137-2.542,2.542-2.542h5.083
	c1.405,0,2.542,1.137,2.542,2.542v17.793C111.314,69.196,110.177,70.334,108.772,70.334L108.772,70.334z M108.772,70.334"/>
<path fill="#9D8443" d="M111.314,52.541h-10.167v-2.542c0-1.405,1.137-2.542,2.542-2.542h5.083c1.405,0,2.542,1.137,2.542,2.542
	V52.541z M111.314,52.541"/>
<path fill="#B0B9C0" d="M124.024,70.334h-5.084c-1.403,0-2.542-1.139-2.542-2.542V49.999c0-1.405,1.139-2.542,2.542-2.542h5.084
	c1.403,0,2.542,1.137,2.542,2.542v17.793C126.566,69.196,125.427,70.334,124.024,70.334L124.024,70.334z M124.024,70.334"/>
<path fill="#9D8443" d="M126.566,52.541h-10.168v-2.542c0-1.405,1.139-2.542,2.542-2.542h5.084c1.403,0,2.542,1.137,2.542,2.542
	V52.541z M126.566,52.541"/>
<path fill="#5C5C5C" d="M128.786,3.228"/>
<g>
	<path fill="#373737" d="M47.793,72.773"/>
	<rect x="41.722" y="72.808" fill="none" width="6.047" height="8.243"/>
</g>
<path fill="#BD3526" d="M43.339,77.447c-1.597-1.551-3.826-2.393-6.053-2.106c-0.935,0.121-1.755,0.811-2.668,1.098
	c-0.431,0.136-2.803-0.031-2.754,0.307c0.975,0.05,1.964,0.059,2.934-0.066c0.659,0.579,1.414,1.062,2.221,1.405
	C39.087,78.961,41.449,78.603,43.339,77.447L43.339,77.447z"/>
<path fill="#BD3526" d="M14.179,78.465c1.849,1.239,4.193,1.667,6.333,0.985c0.898-0.287,1.581-1.113,2.427-1.559
	c0.4-0.211,2.764-0.472,2.654-0.796c-0.968,0.126-1.943,0.295-2.875,0.592c-0.752-0.451-1.582-0.79-2.438-0.983
	C18.09,76.212,15.831,76.988,14.179,78.465L14.179,78.465z"/>
<path fill="#BD3526" d="M57.935,80.502c-1.789-2.147-3.944-3.663-5.807-3.917c-0.782-0.106-1.317,0.454-2.036,0.539
	c-0.34,0.04-2.446-0.759-2.315-0.367c0.86,0.307,1.723,0.573,2.534,0.683c0.722,0.817,1.504,1.552,2.294,2.144
	C54.628,81.098,56.59,81.307,57.935,80.502L57.935,80.502z"/>
<path fill="#BD3526" d="M69.411,77.447c-1.597-1.551-3.826-2.393-6.053-2.106c-0.935,0.121-1.755,0.811-2.668,1.098
	c-0.431,0.136-2.804-0.031-2.754,0.307c0.975,0.05,1.964,0.059,2.934-0.066c0.659,0.579,1.414,1.062,2.221,1.405
	C65.159,78.962,67.52,78.603,69.411,77.447L69.411,77.447z"/>
</svg>
