<?xml version="1.0" encoding="utf-8"?>
<!-- Generator: Adobe Illustrator 17.0.2, SVG Export Plug-In . SVG Version: 6.00 Build 0)  -->
<!DOCTYPE svg PUBLIC "-//W3C//DTD SVG 1.1//EN" "http://www.w3.org/Graphics/SVG/1.1/DTD/svg11.dtd">
<svg version="1.1" id="Layer_1" xmlns="http://www.w3.org/2000/svg" xmlns:xlink="http://www.w3.org/1999/xlink" x="0px" y="0px"
	 width="153px" height="94px" viewBox="0 0 153 94" enable-background="new 0 0 153 94" xml:space="preserve">
<path fill="#C8E650" d="M140.337,94H12.042c-2.834,0-5.131-2.304-5.131-5.146v-7.717h138.559v7.717
	C145.469,91.696,143.172,94,140.337,94L140.337,94z M140.337,94"/>
<path fill="#82D78C" d="M30.004,1.386c-11.711,0-17.963,36.616-17.963,43.734c0,9.93,8.059,18.008,17.963,18.008
	c9.903,0,17.961-8.078,17.961-18.008C47.965,38.004,41.715,1.386,30.004,1.386L30.004,1.386z M30.004,1.386"/>
<path fill="#7CC686" d="M19.74,45.12c0-6.292,4.889-35.622,14.113-42.342c-1.211-0.882-2.491-1.392-3.849-1.392
	c-11.711,0-17.961,36.616-17.961,43.734c0,9.93,8.057,18.008,17.961,18.008c1.321,0,2.607-0.154,3.849-0.425
	C25.795,60.93,19.74,53.725,19.74,45.12L19.74,45.12z M19.74,45.12"/>
<path fill="#64826E" d="M36.95,43.301c-1.002-1.005-2.627-1.005-3.629,0l-0.751,0.754v-4.081c0-1.42-1.15-2.573-2.566-2.573
	c-1.418,0-2.566,1.153-2.566,2.573V49.2l-0.752-0.753c-1.002-1.005-2.626-1.005-3.628,0c-1.002,1.005-1.002,2.633,0,3.637
	l4.38,4.391v24.662h5.132V51.33l4.38-4.391C37.952,45.934,37.952,44.306,36.95,43.301L36.95,43.301z M36.95,43.301"/>
<path fill="#FFDCA0" d="M135.205,39.974L106.98,21.967L78.756,39.974v41.163h56.449V39.974z M135.205,39.974"/>
<path fill="#82D78C" d="M60.794,34.83c-7.66,0-10.263,21.278-10.263,23.154c0,5.673,4.604,10.29,10.263,10.29
	c5.66,0,10.264-4.616,10.264-10.29C71.058,56.109,68.455,34.83,60.794,34.83L60.794,34.83z M60.794,34.83"/>
<path fill="#7CC686" d="M55.663,57.984c0-1.649,2.012-18.266,7.696-22.276c-0.785-0.555-1.636-0.878-2.566-0.878
	c-7.66,0-10.263,21.278-10.263,23.154c0,5.673,4.604,10.29,10.263,10.29c0.891,0,1.741-0.151,2.566-0.366
	C58.946,66.758,55.663,62.764,55.663,57.984L55.663,57.984z M55.663,57.984"/>
<path fill="#64826E" d="M94.151,70.846h-5.132c-1.416,0-2.566-1.153-2.566-2.573V50.266c0-1.422,1.15-2.573,2.566-2.573h5.132
	c1.416,0,2.566,1.151,2.566,2.573v18.008C96.717,69.695,95.568,70.846,94.151,70.846L94.151,70.846z M94.151,70.846"/>
<path fill="#64826E" d="M137.768,45.12c-0.488,0-0.984-0.139-1.421-0.432l-29.368-19.63l-29.366,19.63
	c-1.181,0.787-2.775,0.468-3.56-0.713c-0.785-1.182-0.467-2.781,0.712-3.567l30.791-20.581c0.862-0.576,1.984-0.576,2.846,0
	l30.791,20.581c1.179,0.787,1.497,2.385,0.711,3.567C139.412,44.719,138.599,45.12,137.768,45.12L137.768,45.12z M137.768,45.12"/>
<path fill="#64826E" d="M60.794,57.984c-1.417,0-2.566,1.151-2.566,2.573v20.581h5.132V60.557
	C63.36,59.135,62.212,57.984,60.794,57.984L60.794,57.984z M60.794,57.984"/>
<path fill="#A0DC64" d="M148.036,83.71H4.345c-1.416,0-2.566-1.153-2.566-2.573c0-1.422,1.15-2.573,2.566-2.573h143.691
	c1.416,0,2.566,1.151,2.566,2.573C150.602,82.558,149.452,83.71,148.036,83.71L148.036,83.71z M148.036,83.71"/>
<path fill="#82D78C" d="M96.717,52.839H86.453v-2.573c0-1.422,1.15-2.573,2.566-2.573h5.132c1.418,0,2.566,1.151,2.566,2.573V52.839
	z M96.717,52.839"/>
<path fill="#64826E" d="M109.546,70.846h-5.131c-1.418,0-2.566-1.153-2.566-2.573V50.266c0-1.422,1.148-2.573,2.566-2.573h5.131
	c1.418,0,2.566,1.151,2.566,2.573v18.008C112.112,69.695,110.964,70.846,109.546,70.846L109.546,70.846z M109.546,70.846"/>
<path fill="#82D78C" d="M112.112,52.839h-10.263v-2.573c0-1.422,1.148-2.573,2.566-2.573h5.131c1.418,0,2.566,1.151,2.566,2.573
	V52.839z M112.112,52.839"/>
<path fill="#64826E" d="M124.942,70.846h-5.132c-1.416,0-2.566-1.153-2.566-2.573V50.266c0-1.422,1.15-2.573,2.566-2.573h5.132
	c1.416,0,2.566,1.151,2.566,2.573v18.008C127.509,69.695,126.359,70.846,124.942,70.846L124.942,70.846z M124.942,70.846"/>
<path fill="#82D78C" d="M127.509,52.839h-10.264v-2.573c0-1.422,1.15-2.573,2.566-2.573h5.132c1.416,0,2.566,1.151,2.566,2.573
	V52.839z M127.509,52.839"/>
</svg>
