<?xml version="1.0" encoding="utf-8"?>
<!-- Generator: Adobe Illustrator 17.0.2, SVG Export Plug-In . SVG Version: 6.00 Build 0)  -->
<!DOCTYPE svg PUBLIC "-//W3C//DTD SVG 1.1//EN" "http://www.w3.org/Graphics/SVG/1.1/DTD/svg11.dtd">
<svg version="1.1" id="Layer_1" xmlns="http://www.w3.org/2000/svg" xmlns:xlink="http://www.w3.org/1999/xlink" x="0px" y="0px"
	 width="153px" height="94px" viewBox="0 0 153 94" enable-background="new 0 0 153 94" xml:space="preserve">
<path fill="#A6D4E0" d="M31.095,7.066c-11.615,0-17.816,36.223-17.816,43.264c0,9.823,7.993,17.815,17.816,17.815
	c9.823,0,17.814-7.992,17.814-17.815C48.909,43.29,42.71,7.066,31.095,7.066L31.095,7.066z M31.095,7.066"/>
<path fill="#64826E" d="M37.984,48.531c-0.994-0.994-2.606-0.994-3.6,0l-0.744,0.746V45.24c0-1.405-1.14-2.545-2.545-2.545
	c-1.407,0-2.545,1.14-2.545,2.545v9.126l-0.746-0.745c-0.994-0.994-2.604-0.994-3.598,0c-0.993,0.994-0.993,2.604,0,3.598
	l4.344,4.344v24.397h5.09V56.473l4.344-4.344C38.978,51.135,38.978,49.525,37.984,48.531L37.984,48.531z M37.984,48.531"/>
<path fill="#FFDCA0" d="M135.438,45.24l-27.995-17.814L79.449,45.24v40.721h55.989V45.24z M135.438,45.24"/>
<path fill="#A6D4E0" d="M61.633,40.151c-7.597,0-10.179,21.05-10.179,22.905c0,5.613,4.567,10.179,10.179,10.179
	c5.614,0,10.181-4.567,10.181-10.179C71.814,61.201,69.232,40.151,61.633,40.151L61.633,40.151z M61.633,40.151"/>
<path fill="#7CCDC5" d="M56.545,63.056c0-1.632,1.996-18.069,7.634-22.036c-0.778-0.549-1.623-0.869-2.545-0.869
	c-7.597,0-10.179,21.05-10.179,22.905c0,5.613,4.567,10.179,10.179,10.179c0.884,0,1.727-0.149,2.545-0.362
	C59.801,71.736,56.545,67.784,56.545,63.056L56.545,63.056z M56.545,63.056"/>
<path fill="#64826E" d="M94.719,75.78h-5.09c-1.405,0-2.545-1.14-2.545-2.545V55.421c0-1.406,1.14-2.545,2.545-2.545h5.09
	c1.405,0,2.545,1.139,2.545,2.545v17.814C97.264,74.641,96.124,75.78,94.719,75.78L94.719,75.78z M94.719,75.78"/>
<path fill="#64826E" d="M61.633,63.056c-1.405,0-2.545,1.139-2.545,2.545v20.36h5.09v-20.36
	C64.178,64.195,63.04,63.056,61.633,63.056L61.633,63.056z M61.633,63.056"/>
<path fill="#7CC0D1" d="M140.145,94H12.896c-2.811,0-5.089-2.279-5.089-5.09v-7.634h137.428v7.634
	C145.235,91.721,142.956,94,140.145,94L140.145,94z M140.145,94"/>
<path fill="#82D78C" d="M97.264,57.966H87.083v-2.545c0-1.406,1.14-2.545,2.545-2.545h5.09c1.406,0,2.545,1.139,2.545,2.545V57.966z
	 M97.264,57.966"/>
<path fill="#64826E" d="M109.988,75.78h-5.089c-1.406,0-2.545-1.14-2.545-2.545V55.421c0-1.406,1.139-2.545,2.545-2.545h5.089
	c1.406,0,2.545,1.139,2.545,2.545v17.814C112.533,74.641,111.394,75.78,109.988,75.78L109.988,75.78z M109.988,75.78"/>
<path fill="#82D78C" d="M112.533,57.966h-10.179v-2.545c0-1.406,1.139-2.545,2.545-2.545h5.089c1.406,0,2.545,1.139,2.545,2.545
	V57.966z M112.533,57.966"/>
<path fill="#64826E" d="M125.259,75.78h-5.09c-1.405,0-2.545-1.14-2.545-2.545V55.421c0-1.406,1.14-2.545,2.545-2.545h5.09
	c1.405,0,2.545,1.139,2.545,2.545v17.814C127.804,74.641,126.664,75.78,125.259,75.78L125.259,75.78z M125.259,75.78"/>
<path fill="#82D78C" d="M127.804,57.966h-10.181v-2.545c0-1.406,1.14-2.545,2.545-2.545h5.09c1.405,0,2.545,1.139,2.545,2.545
	V57.966z M127.804,57.966"/>
<path fill="#A6D4E0" d="M30.735,2.381c-11.615,0-17.816,36.223-17.816,43.264c0,9.823,7.993,17.815,17.816,17.815
	c9.823,0,17.814-7.992,17.814-17.815C48.549,38.605,42.349,2.381,30.735,2.381L30.735,2.381z M30.735,2.381"/>
<path fill="#3AA6FF" d="M19.918,48.767c0-6.674,4.85-37.781,13.998-44.91c-1.201-0.936-2.47-1.476-3.817-1.476
	c-11.615,0-17.815,38.836-17.815,46.386c0,10.532,7.991,19.1,17.815,19.1c1.31,0,2.586-0.163,3.817-0.451
	C25.923,65.535,19.918,57.894,19.918,48.767L19.918,48.767z M19.918,48.767"/>
<path fill="#64826E" d="M37.624,43.846c-0.994-0.994-2.606-0.994-3.6,0l-0.744,0.746v-4.038c0-1.405-1.14-2.545-2.545-2.545
	c-1.407,0-2.545,1.14-2.545,2.545v9.126l-0.746-0.745c-0.994-0.994-2.604-0.994-3.598,0c-0.993,0.994-0.993,2.604,0,3.598
	l4.344,4.344v24.397h5.09V51.789l4.344-4.344C38.618,46.451,38.618,44.84,37.624,43.846L37.624,43.846z M37.624,43.846"/>
<path fill="#FFDCA0" d="M135.078,40.555l-27.995-17.814L79.089,40.555v40.721h55.989V40.555z M135.078,40.555"/>
<path fill="#A6D4E0" d="M61.273,35.466c-7.597,0-10.179,21.05-10.179,22.905c0,5.613,4.567,10.179,10.179,10.179
	c5.614,0,10.181-4.567,10.181-10.179C71.454,56.516,68.872,35.466,61.273,35.466L61.273,35.466z M61.273,35.466"/>
<path fill="#3AA6FF" d="M56.184,61.412c0-1.848,1.996-20.469,7.634-24.962c-0.778-0.622-1.623-0.984-2.545-0.984
	c-7.597,0-10.179,23.845-10.179,25.946c0,6.358,4.567,11.531,10.179,11.531c0.884,0,1.727-0.169,2.545-0.41
	C59.44,71.245,56.184,66.769,56.184,61.412L56.184,61.412z M56.184,61.412"/>
<path fill="#6496BC" d="M94.358,71.095h-5.09c-1.405,0-2.545-1.14-2.545-2.545V50.736c0-1.406,1.14-2.545,2.545-2.545h5.09
	c1.405,0,2.545,1.139,2.545,2.545V68.55C96.903,69.956,95.763,71.095,94.358,71.095L94.358,71.095z M94.358,71.095"/>
<path fill="#3AA6FF" d="M137.62,45.645c-0.484,0-0.976-0.138-1.409-0.428l-29.128-19.419L77.956,45.217
	c-1.171,0.778-2.752,0.463-3.531-0.705c-0.778-1.17-0.463-2.751,0.707-3.529l30.54-20.36c0.854-0.57,1.968-0.57,2.822,0l30.54,20.36
	c1.17,0.778,1.485,2.359,0.705,3.529C139.25,45.248,138.443,45.645,137.62,45.645L137.62,45.645z M137.62,45.645"/>
<path fill="#64826E" d="M61.273,58.371c-1.405,0-2.545,1.139-2.545,2.545v20.36h5.09v-20.36
	C63.818,59.51,62.679,58.371,61.273,58.371L61.273,58.371z M61.273,58.371"/>
<path fill="#A6D4E0" d="M147.803,83.821H5.284c-1.405,0-2.545-1.14-2.545-2.545c0-1.406,1.14-2.545,2.545-2.545h142.519
	c1.405,0,2.545,1.139,2.545,2.545C150.348,82.681,149.208,83.821,147.803,83.821L147.803,83.821z M147.803,83.821"/>
<path fill="#A6D4E0" d="M96.903,53.281H86.723v-2.545c0-1.406,1.14-2.545,2.545-2.545h5.09c1.406,0,2.545,1.139,2.545,2.545V53.281z
	 M96.903,53.281"/>
<path fill="#6496BC" d="M109.628,71.095h-5.089c-1.406,0-2.545-1.14-2.545-2.545V50.736c0-1.406,1.139-2.545,2.545-2.545h5.089
	c1.406,0,2.545,1.139,2.545,2.545V68.55C112.173,69.956,111.034,71.095,109.628,71.095L109.628,71.095z M109.628,71.095"/>
<path fill="#A6D4E0" d="M112.173,53.281h-10.179v-2.545c0-1.406,1.139-2.545,2.545-2.545h5.089c1.406,0,2.545,1.139,2.545,2.545
	V53.281z M112.173,53.281"/>
<path fill="#6496BC" d="M124.898,71.095h-5.09c-1.405,0-2.545-1.14-2.545-2.545V50.736c0-1.406,1.14-2.545,2.545-2.545h5.09
	c1.405,0,2.545,1.139,2.545,2.545V68.55C127.444,69.956,126.303,71.095,124.898,71.095L124.898,71.095z M124.898,71.095"/>
<path fill="#A6D4E0" d="M127.444,53.281h-10.181v-2.545c0-1.406,1.14-2.545,2.545-2.545h5.09c1.405,0,2.545,1.139,2.545,2.545
	V53.281z M127.444,53.281"/>
<path fill="#B4B4B4" d="M85.922-0.884"/>
<path fill="#A6D4E0" d="M135.344,6.321c-0.016-0.2-0.033-0.384-0.06-0.553c-0.031-0.181-0.048-0.334-0.079-0.492
	c-0.03-0.165-0.063-0.292-0.079-0.365c-0.18-0.603-0.688-0.865-1.322-0.665c-0.138,0.046-0.334,0.123-0.63,0.261
	c-0.259,0.123-0.582,0.277-0.951,0.446c-0.355,0.185-0.753,0.384-1.185,0.599l-0.582,0.292l0.799-4.303l-0.338-0.108
	c-0.355-0.092-0.72-0.185-1.122-0.246c-0.386-0.062-0.661-0.092-0.845-0.092c-0.661,0-1.059,0.403-1.059,1.064
	c0,0.181,0.027,0.55,0.106,1.137c0.063,0.55,0.153,1.18,0.259,1.887l0.112,0.646l-3.813-2.09l-0.217,0.292
	c-0.212,0.307-0.413,0.63-0.582,0.983c-0.2,0.353-0.306,0.615-0.369,0.845c-0.015,0.065-0.031,0.123-0.031,0.169
	c-0.018,0.077-0.018,0.138-0.018,0.204c0,0.457,0.281,0.78,0.724,0.887c0.123,0.046,0.338,0.096,0.646,0.154
	c0.292,0.077,0.645,0.138,1.047,0.2l1.306,0.234c0.227,0.027,0.443,0.058,0.661,0.104l-3.199,3.001l0.233,0.288
	c0.244,0.292,0.492,0.569,0.767,0.845c0.29,0.277,0.507,0.477,0.598,0.527c0.248,0.242,0.492,0.307,0.661,0.307
	c0.233,0,0.571-0.096,0.8-0.461c0.078-0.096,0.217-0.296,0.371-0.573c0.151-0.273,0.321-0.58,0.522-0.953
	c0.184-0.369,0.402-0.753,0.613-1.199l0.307-0.565l1.893,4.008l0.355-0.169c0.152-0.058,0.321-0.154,0.507-0.242
	c0.17-0.081,0.323-0.154,0.492-0.234c0.169-0.073,0.323-0.154,0.444-0.215c0.123-0.077,0.232-0.138,0.353-0.211
	c0.34-0.296,0.398-0.603,0.398-0.814c0-0.234-0.058-0.434-0.211-0.661c-0.079-0.081-0.217-0.25-0.434-0.461l-0.719-0.772
	c-0.28-0.292-0.586-0.615-0.926-0.968c-0.152-0.154-0.305-0.308-0.459-0.461l3.98-0.507l0.371-0.062l-0.032-0.365
	C135.375,6.689,135.375,6.52,135.344,6.321L135.344,6.321z"/>
<path fill="#B4B4B4" d="M78.938,3.094"/>
<path fill="#A6D4E0" d="M98.503,11.286c-0.015-0.2-0.031-0.384-0.062-0.565c-0.015-0.184-0.046-0.338-0.077-0.476
	c-0.031-0.169-0.062-0.296-0.077-0.373c-0.184-0.611-0.692-0.876-1.321-0.676c-0.123,0.05-0.338,0.123-0.63,0.261
	c-0.261,0.127-0.584,0.281-0.953,0.461c-0.354,0.169-0.753,0.369-1.184,0.584l-0.584,0.292l0.8-4.303l-0.339-0.092
	c-0.353-0.104-0.738-0.184-1.121-0.246c-0.385-0.077-0.676-0.108-0.861-0.108c-0.661,0-1.045,0.403-1.045,1.064
	c0,0.184,0.031,0.565,0.093,1.137c0.077,0.549,0.169,1.179,0.277,1.886l0.092,0.645l-3.811-2.09l-0.2,0.292
	c-0.216,0.307-0.415,0.645-0.599,0.984c-0.185,0.353-0.292,0.615-0.369,0.845c-0.015,0.081-0.015,0.123-0.031,0.184
	c0,0.065-0.015,0.123-0.015,0.184c0,0.461,0.292,0.784,0.738,0.891c0.108,0.046,0.323,0.092,0.646,0.169
	c0.292,0.062,0.63,0.127,1.045,0.2l1.306,0.215c0.215,0.034,0.43,0.077,0.661,0.107l-3.212,2.997l0.23,0.292
	c0.246,0.292,0.507,0.573,0.784,0.845c0.277,0.292,0.507,0.476,0.6,0.526c0.246,0.242,0.492,0.304,0.661,0.304
	c0.231,0,0.569-0.092,0.799-0.457c0.077-0.096,0.2-0.28,0.369-0.572c0.154-0.258,0.323-0.58,0.522-0.953
	c0.185-0.353,0.384-0.749,0.615-1.183l0.292-0.58l1.89,4.008l0.353-0.154c0.17-0.073,0.339-0.169,0.523-0.242
	c0.154-0.096,0.323-0.169,0.477-0.25c0.169-0.073,0.323-0.154,0.446-0.211c0.138-0.081,0.23-0.127,0.353-0.2
	c0.339-0.292,0.415-0.619,0.415-0.814c0-0.235-0.076-0.45-0.23-0.661c-0.077-0.096-0.215-0.25-0.43-0.477l-0.723-0.757
	c-0.277-0.307-0.584-0.63-0.922-0.968c-0.154-0.154-0.307-0.323-0.461-0.476l3.981-0.507l0.368-0.058l-0.031-0.369
	C98.548,11.655,98.533,11.47,98.503,11.286L98.503,11.286z"/>
<path fill="#B4B4B4" d="M98.503,11.286"/>
<path fill="#A6D4E0" d="M60.811,6.337c-0.015-0.204-0.033-0.393-0.061-0.565c-0.031-0.185-0.049-0.342-0.081-0.502
	c-0.031-0.169-0.065-0.298-0.08-0.373c-0.184-0.616-0.702-0.883-1.35-0.679c-0.141,0.047-0.342,0.126-0.644,0.267
	c-0.265,0.126-0.595,0.283-0.971,0.455c-0.363,0.188-0.769,0.393-1.211,0.612l-0.595,0.298l0.816-4.395l-0.345-0.11
	c-0.363-0.094-0.736-0.188-1.146-0.251C54.749,1.031,54.469,1,54.281,1c-0.675,0-1.081,0.412-1.081,1.087
	c0,0.185,0.028,0.561,0.108,1.162c0.065,0.561,0.157,1.205,0.265,1.927l0.114,0.659L49.791,3.7l-0.222,0.298
	c-0.216,0.314-0.422,0.643-0.595,1.004c-0.204,0.361-0.312,0.628-0.377,0.863c-0.016,0.067-0.031,0.126-0.031,0.173
	c-0.018,0.078-0.018,0.141-0.018,0.208c0,0.467,0.286,0.797,0.74,0.906c0.125,0.047,0.345,0.098,0.659,0.157
	c0.298,0.078,0.659,0.141,1.069,0.204l1.334,0.239c0.232,0.028,0.453,0.059,0.675,0.106l-3.267,3.065l0.238,0.294
	c0.249,0.298,0.502,0.581,0.783,0.863c0.296,0.283,0.518,0.487,0.61,0.538c0.253,0.247,0.502,0.314,0.675,0.314
	c0.238,0,0.583-0.098,0.816-0.471c0.08-0.098,0.222-0.302,0.379-0.585c0.155-0.278,0.328-0.592,0.534-0.973
	c0.188-0.377,0.41-0.769,0.626-1.225l0.314-0.577l1.933,4.093l0.363-0.173c0.155-0.059,0.328-0.157,0.518-0.247
	c0.173-0.082,0.33-0.157,0.502-0.239c0.173-0.074,0.33-0.157,0.453-0.22c0.126-0.078,0.238-0.141,0.361-0.216
	c0.347-0.302,0.406-0.616,0.406-0.832c0-0.239-0.059-0.443-0.216-0.675c-0.08-0.082-0.222-0.255-0.443-0.471l-0.734-0.789
	c-0.286-0.298-0.598-0.628-0.946-0.989c-0.155-0.157-0.312-0.314-0.469-0.471l4.066-0.518l0.379-0.063l-0.033-0.373
	C60.842,6.714,60.842,6.541,60.811,6.337L60.811,6.337z"/>
</svg>
